<?xml version="1.0" encoding="iso-8859-1"?>
<!-- Generator: Adobe Illustrator 19.0.0, SVG Export Plug-In . SVG Version: 6.00 Build 0)  -->
<svg version="1.1" id="Capa_1" xmlns="http://www.w3.org/2000/svg" xmlns:xlink="http://www.w3.org/1999/xlink" x="0px" y="0px"
	 viewBox="0 0 512 512" style="enable-background:new 0 0 512 512;" xml:space="preserve">
<g>
	<g>
		<path d="M206.594,305.604l-0.15-0.151c-3.892-3.92-10.225-3.939-14.142-0.046c-3.918,3.893-3.938,10.224-0.046,14.142l0.15,0.151
			c1.954,1.968,4.523,2.952,7.094,2.952c2.549,0,5.098-0.968,7.048-2.906C210.466,315.853,210.486,309.522,206.594,305.604z"/>
	</g>
</g>
<g>
	<g>
		<path d="M437.516,75.478l-0.497-0.498c-3.906-3.904-10.236-3.904-14.143,0c-3.905,3.905-3.905,10.237,0,14.143l0.498,0.498
			c1.953,1.952,4.512,2.929,7.071,2.929s5.118-0.977,7.071-2.929C441.421,85.716,441.421,79.384,437.516,75.478z"/>
	</g>
</g>
<g>
	<g>
		<path d="M461.086,102.759c-3.309-4.423-9.575-5.325-13.997-2.015c-4.422,3.309-5.324,9.575-2.015,13.997
			c28.701,38.352,44.749,83.544,46.717,131.259h-62.085C424.694,158.002,353.998,87.306,266,82.294V10c0-5.522-4.478-10-10-10
			C187.62,0,123.333,26.629,74.98,74.98C26.629,123.333,0,187.62,0,256s26.629,132.667,74.98,181.02
			C123.333,485.371,187.62,512,256,512s132.667-26.629,181.02-74.98C485.371,388.667,512,324.38,512,256
			C512,200.257,494.395,147.267,461.086,102.759z M246,20.227v62.068C158.002,87.306,87.306,158.002,82.294,246H20.227
			C25.347,123.808,123.808,25.347,246,20.227z M246,491.774C123.808,486.653,25.347,388.192,20.227,266h62.068
			C87.306,353.998,158.002,424.694,246,429.706V491.774z M246,325.306c-4.063-0.595-8.114-1.549-12.113-2.877
			c-5.24-1.735-10.9,1.099-12.642,6.341c-1.739,5.241,1.1,10.901,6.341,12.642c6.073,2.016,12.241,3.356,18.414,4.06v64.195
			C169.035,404.708,107.292,342.965,102.333,266h64.223c0.603,5.376,1.684,10.744,3.281,16.041c1.594,5.289,7.175,8.282,12.46,6.688
			c5.288-1.594,8.282-7.173,6.688-12.46c-1.023-3.395-1.771-6.827-2.268-10.27H246V325.306z M246,246h-59.295
			c2.118-14.701,8.898-28.604,19.79-39.496c11.103-11.103,25.04-17.688,39.505-19.758V246z M246.001,166.617H246
			c-19.611,2.173-38.642,10.74-53.647,25.745c-14.709,14.71-23.588,33.688-25.813,53.639h-64.206
			c4.958-76.965,66.702-138.708,143.667-143.667V166.617z M266.001,102.334c76.964,4.958,138.707,66.701,143.666,143.666h-64.284
			c-2.175-19.608-10.741-38.636-25.743-53.639c-15.003-15.002-34.031-23.568-53.639-25.743V102.334z M266,186.747
			c14.461,2.071,28.395,8.655,39.496,19.757c11.101,11.102,17.686,25.035,19.757,39.496H266V186.747z M266,266h59.254
			c-2.069,14.464-8.654,28.401-19.758,39.505c-10.96,10.96-24.829,17.731-39.496,19.832V266z M266,345.502
			c19.908-2.199,38.836-11.051,53.639-25.854c15.005-15.005,23.571-34.036,25.745-53.647h64.283
			C404.708,342.965,342.965,404.708,266,409.667V345.502z M266,491.773v-62.068c87.998-5.011,158.694-75.708,163.706-163.706h62.068
			C486.653,388.192,388.192,486.653,266,491.773z"/>
	</g>
</g>
<g>
</g>
<g>
</g>
<g>
</g>
<g>
</g>
<g>
</g>
<g>
</g>
<g>
</g>
<g>
</g>
<g>
</g>
<g>
</g>
<g>
</g>
<g>
</g>
<g>
</g>
<g>
</g>
<g>
</g>
</svg>
