<?xml version="1.0" encoding="UTF-8" standalone="no"?> <svg xmlns="http://www.w3.org/2000/svg" width="81.331" height="78.843" viewBox="0 0 81.331 78.843">
  <g id="Group_1762" data-name="Group 1762" transform="translate(-1063.745 -204.245)">
    <g id="Group_1761" data-name="Group 1761">
      <g id="Group_1760" data-name="Group 1760">
        <path id="Path_342" data-name="Path 342" d="M1144.66,242.813c-.575-1.258-1.522-1.381-2.786-1.773-.1-1.414-1.089-1.206-2.059-1.858-.523-.352-1.164-1.278-.186-1.559-.269-.26-.77-.73-.7-1.154s.772-.459.911-.853c.263-.741-.842-1.781.643-1.972a7.275,7.275,0,0,0-.1-1.64c-.168-1.029-.13-.98-1.146-1.055-.987-.072-1.067.115-1.443-.774-.053-.126.193-.414.059-.676a2.032,2.032,0,0,0-.692-.643c-.52.509-1.255,1.279-1.681-.006-.258-.774-1.24.808-1.462.037-.291,0-.44-.2-.7-.246-.087-.98.96-1.368,1.179-2.271.353-1.43-.476-1.273-1.2-1.933-.421-.379-.746-.873-1.2-1.27-.2-.175-.56-.786-.784-.854-.364-.111-.346.172-.652.167-.8-.01-1.355.29-.934-.747l-.109-.252c-.178-1.265-1.092-1.094-1.98-1.854-.486-.419-.681-2.058-1.279-2.328a1.513,1.513,0,0,0-1.633.467c-.669.577-.334.607-1.008,1.222-.575-.932-.382-.817-1.343-.871-.988-.057-1.341.253-1.56-.763-.231-1.081-.078-1.149-.178-1.314-.4-.579-.572-.47-1.121-.842a.82.82,0,0,0-.067-.348c-.448-.886-1.052-.294-1.628-.565l-.005,0a4.466,4.466,0,0,1,.667-1.52c1.024-2.069-1.086-1.865-2.45-1.935.245-1.11-.948-.994-1.667-1.146-.385-1.559-1.852-3.915-3.743-2.289-.545-.5-.688.311-1.188-.548-.468-.8-.016-1.379-1.134-1.634-1.9-.437-1.59-1.025-2.435-.075-.01.01-.02.013-.026.021-.347-.218.211.37-.143.19.035.271-.692-.23-.546.163a10.655,10.655,0,0,1-1.83-.249,1.772,1.772,0,0,1,.018-.362,1.5,1.5,0,0,0-1.366.505l-.064-.005a2.719,2.719,0,0,0-.709-1.074c-.628-.495-1.445,1.486-2.112.885-.648.707-1.532,1.256-2.141,1.855-.727.716-.525,1.172-.54,1.969a1.43,1.43,0,0,1-.688.125c-.14-.16-.385-.122-.65.014-.308-.062-.958.9-1.744.9-.815,0-2.579-1.087-2.531.838a2.511,2.511,0,0,0-1.944,1.048c-.563.159-.681.568-.467,1.273-1.018.365-1.136,1.523-1.14,2.487-.008,1.477.3,1.262-1.153,1.384-1.983.166-3.972,2.24-1.584,2.982-.021.08-.041.158-.071.245-.379,1.1-1.31.492-1.683,1.278a4.249,4.249,0,0,1-.569.03c-.788-.03-3.216-1.112-2.938.965-1.556-.311-1.767,2.567-1.17,3.449-1.131-.085-1.621-1.6-2.718-1.893a2.578,2.578,0,0,0-3.242,2.292c-1.827-.049-4.119,2.983-2.416,4.406-1.29.357-.146,2.118-.971,3.009-.569.615-2.167.88-2.523,1.7-.19.438.38.97.232,1.55-.422,1.636-2.84,1.33-2.685,3.439.143,1.917,1,1.588,2.518,1.477.233.983.1,1.685,1.153,2.117a10.465,10.465,0,0,0,2.97.289c1.737-.11.731-.927,1.715-1.823,1.35-1.23,1.507.531,1.618,1.513a.771.771,0,0,0,1-.522,2.231,2.231,0,0,1,.952-.005c-.1,1.773.271,4.68,2.456,2.874.77,2.771,4.871,1.425,6.487.536.187-.1.09-.561.385-.707.26-.129.669.049.944-.011a8.241,8.241,0,0,1,1.677-.055,6.473,6.473,0,0,0,2.306-.254c.24.244.486.485.748.713,1.278,1.19,2.706,2.315,4.007,3.612.615.68,1.284,1.32,1.866,2.042.563.743,1.166,1.455,1.7,2.223.5.784,1.033,1.548,1.5,2.338.433.81.9,1.605,1.291,2.4a31.353,31.353,0,0,1,1.357,4.3l.187.534a18.841,18.841,0,0,1,.612,2.139,14.181,14.181,0,0,1,.24,1.537c-.022.115-.038.194-.038.194l.06.006a15.767,15.767,0,0,1,.063,2.145c-.011.974-.07,2.4-.151,3.939-.011.4-.056.757-.04,1.224.007.436.017.882.024,1.329l.009.565a2.128,2.128,0,0,1-.012.492,7.205,7.205,0,0,1-.374,1.025,10.79,10.79,0,0,0-.458,1.25c-.109.346-.216.684-.318,1.006a7.267,7.267,0,0,1-.855,1.551l-.4.544h11.038a14.048,14.048,0,0,1-2.419-2.535,12.275,12.275,0,0,1-2-4.29,16.976,16.976,0,0,1-.481-3.78,22.316,22.316,0,0,1,.242-3.652c.229-1.325.494-3.265.771-4.834a6.479,6.479,0,0,1,.288-.813l.35-.482.188-.253a1.6,1.6,0,0,0,.272-.582c-.005.042-.009.083-.015.126a3.89,3.89,0,0,1,.766-1.227c.174-.2.37-.482.556-.73l.442-.831a13.336,13.336,0,0,0,.729-1.684,5.027,5.027,0,0,1,.823-1.4c.736-.879,1.529-1.974,2.278-2.746.4-.418.9-.792,1.342-1.188.462-.426.941-.866,1.387-1.3.409-.43.806-.919,1.22-1.293.122-.1.236-.21.349-.319a.58.58,0,0,0,.656.318c.615-.06.486-.357.82-.629.435-.352.649-.751,1.227-.864a1.107,1.107,0,0,0,.218.108c.191.418.783,1.183,1.154,1.183.58,0,.443-.494.806-.765,1.217-.909.833.006,1.785.628,1.356.88.942-.672,1.658-1.1,1.005-.608,2.973,1.4,3.932-.092,1.043.378,1.015-.515,1.774-.642.526-.088,1.242.776,1.8.7.537-.068.76-.552,1.029-1.035.094-.024.183-.035.28-.067a5.818,5.818,0,0,0,2.241-1.491c.211,1.406,1.127,1.626,2.693.979.315-.131.484-.451.861-.568.253-.079.519.219.825.073.513-.244.618-.952.931-1.386.322.2.661.461.992.67C1145.37,244.7,1144.97,243.483,1144.66,242.813Zm-50.62,5.6c-1.161-.959-2.29-1.839-3.315-2.726.5-.215,1.014-.486,1.617-.806a3.231,3.231,0,0,0,2.526.527c.091.446.185.9.3,1.371a10.656,10.656,0,0,0,.538,1.627l.653,1.532c.173.411.361.818.553,1.225A33.769,33.769,0,0,0,1094.04,248.416Zm10.78,5.233c0,.212-.016.412-.021.618-.083.721-.134,1.41-.146,2.02-.07.647-.147,1.248-.215,1.758s-.146,1.243-.244,2.079c-.257-.49-.486-.921-.653-1.247-.275-.561-.639-1.213-1.038-1.913a22.9,22.9,0,0,0-1.469-2.03,21.844,21.844,0,0,1-3.052-4.374c-.413-.843-.827-1.688-1.24-2.527-.229-.434-.343-.809-.513-1.213-.124-.43-.264-.836-.37-1.277-.016-.058-.031-.114-.047-.171.058,0,.114,0,.172,0,.23,1.069,1.343,1.152,2.025.427.59-.627.058-1.8,1.336-1.488a4.625,4.625,0,0,1,.324,1.954,5.46,5.46,0,0,0,2.66-.353c.34.858.787,1.706,1.2,2.511a12.512,12.512,0,0,1,1.065,2.622,7.05,7.05,0,0,1,.18,1.306c.021.219.039.435.059.65C1104.82,253.219,1104.82,253.436,1104.82,253.649Zm.9-3.38a11.857,11.857,0,0,0-.6-1.4c-.411-.786-.867-1.525-1.276-2.252-.213-.364-.391-.721-.57-1.074-.036-.08-.07-.159-.106-.239.015-.02.033-.038.047-.059.225.252.441.523.707.524a.7.7,0,0,0,.57-.372c.21.295-.024.372.681.574a18.077,18.077,0,0,0,2.362-.052c-.031.093-.063.185-.094.276-.353,1.015-.836,1.933-1.29,2.951C1105.99,249.526,1105.86,249.9,1105.72,250.269Zm8.64,1.165c-.574.659-1.153,1.329-1.736,2-.543.713-1.037,1.477-1.557,2.22q-.678,1.151-1.349,2.287c-.379.57-.734,1.143-1.109,1.7-.544.458-1.244.965-1.906,1.454-.141-1.561-.347-3.047-.392-3.9-.037-.56-.051-1.185-.037-1.842,0-.117.01-.232.01-.352a16.392,16.392,0,0,1,.851-4.67c.269-.819.659-1.648,1.008-2.549.333-.9.6-1.807.842-2.7.541.636.724,1.813,1.332,2.344,1.077.941,2.427.682,3.685.689a9.9,9.9,0,0,1,2.583.655l.063.016C1115.94,249.677,1115.17,250.551,1114.36,251.434Zm2.48-1.455c.221-.279.435-.564.634-.857.05-.071.1-.142.15-.211.1,0,.195.008.294.014C1117.55,249.273,1117.19,249.629,1116.84,249.979Z"/>
      </g>
    </g>
  </g>
</svg>
